<?xml version="1.0" standalone="no"?>
<!DOCTYPE svg PUBLIC "-//W3C//DTD SVG 20010904//EN"
 "http://www.w3.org/TR/2001/REC-SVG-20010904/DTD/svg10.dtd">
<svg version="1.0" xmlns="http://www.w3.org/2000/svg"
 width="512.000000pt" height="512.000000pt" viewBox="0 0 512.000000 512.000000"
 preserveAspectRatio="xMidYMid meet">

<g transform="translate(0.000000,512.000000) scale(0.100000,-0.100000)"
fill="#000000" stroke="none">
<path d="M2220 5109 c-802 -55 -1446 -254 -1856 -574 -159 -125 -279 -283
-332 -440 l-27 -80 -3 -487 -3 -488 649 -2 648 -3 -458 -819 -458 -818 0 -699
0 -699 2180 0 2180 0 0 699 0 700 -458 818 -458 818 649 3 648 2 -3 478 c-5
523 -5 524 -69 661 -258 555 -1308 947 -2514 939 -110 0 -252 -4 -315 -9z
m650 -299 c436 -31 726 -84 1059 -192 459 -148 776 -370 864 -607 20 -52 22
-80 25 -363 l4 -308 -556 0 -556 0 -2 313 -3 312 -150 32 c-331 71 -639 103
-1005 103 -360 0 -650 -30 -997 -101 l-153 -32 0 -313 0 -314 -550 0 -550 0 0
300 c0 275 2 306 20 360 101 298 570 574 1217 714 409 89 924 126 1333 96z
m225 -1039 c152 -19 265 -38 298 -47 15 -5 17 -23 17 -195 l0 -189 -855 0
-855 0 2 192 3 193 65 12 c74 13 377 51 460 57 30 2 204 2 385 0 256 -2 364
-7 480 -23z m806 -1488 c233 -416 426 -760 427 -765 2 -4 -794 -8 -1768 -8
-974 0 -1770 4 -1768 8 2 5 194 349 427 765 l424 757 917 0 917 0 424 -757z
m539 -1528 l0 -455 -1880 0 -1880 0 0 455 0 455 1880 0 1880 0 0 -455z"/>
<path d="M1900 2715 l0 -155 150 0 150 0 0 155 0 155 -150 0 -150 0 0 -155z"/>
<path d="M2410 2715 l0 -155 150 0 150 0 0 155 0 155 -150 0 -150 0 0 -155z"/>
<path d="M2912 2718 l3 -153 150 0 150 0 0 150 0 150 -153 3 -153 3 3 -153z"/>
<path d="M1900 2270 l0 -150 150 0 150 0 0 150 0 150 -150 0 -150 0 0 -150z"/>
<path d="M2410 2270 l0 -150 150 0 150 0 0 150 0 150 -150 0 -150 0 0 -150z"/>
<path d="M2910 2270 l0 -150 155 0 155 0 0 150 0 150 -155 0 -155 0 0 -150z"/>
<path d="M1900 1830 l0 -150 150 0 150 0 0 150 0 150 -150 0 -150 0 0 -150z"/>
<path d="M2410 1830 l0 -150 150 0 150 0 0 150 0 150 -150 0 -150 0 0 -150z"/>
<path d="M2910 1830 l0 -150 155 0 155 0 0 150 0 150 -155 0 -155 0 0 -150z"/>
</g>
</svg>
